HIERARCHY
ROOT Hips
{
	OFFSET 0.000000 88.474243 0.000000
	CHANNELS 6 Xposition Yposition Zposition Zrotation Yrotation Xrotation 
	JOINT Hips_Spine
	{
		OFFSET 0.000000 0.000000 0.000000
		CHANNELS 3 Zrotation Yrotation Xrotation
		JOINT Spine
		{
			OFFSET 0.005100 8.711998 -0.691000
			CHANNELS 3 Zrotation Yrotation Xrotation
			JOINT Spine1
			{
				OFFSET -0.009200 8.660301 -1.275000
				CHANNELS 3 Zrotation Yrotation Xrotation
				JOINT Spine2
				{
					OFFSET 0.006300 9.852501 -1.857000
					CHANNELS 3 Zrotation Yrotation Xrotation
					JOINT Spine2_Neck
					{
						OFFSET 0.000000 0.000000 0.000000
						CHANNELS 3 Zrotation Yrotation Xrotation
						JOINT Neck
						{
							OFFSET 0.016300 11.420799 -0.263300
							CHANNELS 3 Zrotation Yrotation Xrotation
							End Site #name: Head
							{
								OFFSET -0.019200 9.262405 2.362500
							}
						}
					}
					JOINT Spine2_LeftShoulder
					{
						OFFSET 0.000000 0.000000 0.000000
						CHANNELS 3 Zrotation Yrotation Xrotation
						JOINT LeftShoulder
						{
							OFFSET 5.616900 6.732201 -0.345700
							CHANNELS 3 Zrotation Yrotation Xrotation
							JOINT LeftArm
							{
								OFFSET 10.664888 -0.183372 -2.440700
								CHANNELS 3 Zrotation Yrotation Xrotation
								JOINT LeftForeArm
								{
									OFFSET 27.459126 0.000000 0.000000
									CHANNELS 3 Zrotation Yrotation Xrotation
									End Site #name: LeftHand
									{
										OFFSET 21.306858 0.000000 0.000000
									}
								}
							}
						}
					}
					JOINT Spine2_RightShoulder
					{
						OFFSET 0.000000 0.000000 0.000000
						CHANNELS 3 Zrotation Yrotation Xrotation
						JOINT RightShoulder
						{
							OFFSET -5.580300 6.737503 -0.344400
							CHANNELS 3 Zrotation Yrotation Xrotation
							JOINT RightArm
							{
								OFFSET -10.679335 -0.188484 -2.383900
								CHANNELS 3 Zrotation Yrotation Xrotation
								JOINT RightForeArm
								{
									OFFSET -27.503529 0.000000 0.000000
									CHANNELS 3 Zrotation Yrotation Xrotation
									End Site #name: RightHand
									{
										OFFSET -21.306808 0.000000 0.000000
									}
								}
							}
						}
					}
				}
			}
		}
	}
	JOINT Hips_LeftUpLeg
	{
		OFFSET 0.000000 0.000000 0.000000
		CHANNELS 3 Zrotation Yrotation Xrotation
		JOINT LeftUpLeg
		{
			OFFSET 6.857700 -6.739601 0.312100
			CHANNELS 3 Zrotation Yrotation Xrotation
			JOINT LeftLeg
			{
				OFFSET -0.367590 -34.731552 -4.572400
				CHANNELS 3 Zrotation Yrotation Xrotation
				End Site #name: LeftFoot
				{
					OFFSET 0.367590 -34.656704 -6.067400
				}
			}
		}
	}
	JOINT Hips_RightUpLeg
	{
		OFFSET 0.000000 0.000000 0.000000
		CHANNELS 3 Zrotation Yrotation Xrotation
		JOINT RightUpLeg
		{
			OFFSET -6.876100 -6.733299 0.301000
			CHANNELS 3 Zrotation Yrotation Xrotation
			JOINT RightLeg
			{
				OFFSET 0.347353 -34.795158 -4.515900
				CHANNELS 3 Zrotation Yrotation Xrotation
				End Site #name: RightFoot
				{
					OFFSET -0.347353 -34.589367 -6.070300
				}
			}
		}
	}
}
MOTION
Frames: 10
Frame Time: 0.041667
0.771281 26.515969 -8.407165 5.972956 11.587681 45.488667 0.000000 0.000000 0.000000 -4.671821 1.254201 53.062500 -0.960853 -0.037589 7.622444 0.000000 0.000000 0.000000 -0.987825 0.017190 7.616775 -2.365723 -1.649799 -5.237136 -0.987825 0.017190 7.616775 -45.212794 -39.666178 24.002101 18.363543 -38.070974 -33.734309 0.000008 -15.987910 -0.000003 -0.987825 0.017190 7.616775 22.829248 32.470262 10.648613 7.089854 50.064238 -49.695648 0.000011 26.234383 0.000007 0.000000 0.000000 0.000000 18.162593 -5.455299 -44.284620 -1.413642 -10.674958 68.478652 0.000000 0.000000 0.000000 -12.856148 3.861487 -31.998590 -11.115890 4.770526 59.916601 
1.901814 25.444321 -9.740326 -6.626768 12.440164 43.049273 0.000000 0.000000 0.000000 -1.373734 7.853243 51.415761 -0.828638 1.894160 7.617512 0.000000 0.000000 0.000000 -0.998806 1.941297 7.597692 -3.195357 -1.919477 -4.783982 -0.998806 1.941297 7.597692 -45.644635 -40.362774 23.518923 19.393422 -38.322775 -38.031511 0.000008 -18.191986 -0.000011 -0.998806 1.941297 7.597692 23.092884 35.307931 11.694913 9.808363 43.628856 -45.121675 0.000017 34.525906 0.000007 0.000000 0.000000 0.000000 16.508582 -7.250578 -52.652602 -6.948366 -7.111313 94.570643 0.000000 0.000000 0.000000 -9.189741 0.204068 -25.878153 -8.711527 4.983716 42.198129 
2.326359 23.676812 -11.479473 -19.142432 12.955280 38.888396 0.000000 0.000000 0.000000 2.497039 14.359340 49.134649 -0.545041 3.882296 7.493436 0.000000 0.000000 0.000000 -0.863553 3.888634 7.463834 -3.969748 -2.278816 -4.348208 -0.863553 3.888634 7.463834 -46.067677 -38.203067 23.291896 16.296798 -37.785117 -36.530412 -0.000015 -26.054585 -0.000005 -0.863553 3.888634 7.463834 23.494294 38.244489 12.760594 11.377058 30.675483 -41.235763 0.000017 40.511779 -0.000015 0.000000 0.000000 0.000000 11.223096 -3.808603 -62.186828 -8.768526 -1.928555 113.192312 0.000000 0.000000 0.000000 -3.989071 -3.195518 -18.887682 -8.239247 6.806676 28.863126 
1.550995 22.058819 -12.658401 -28.890109 12.772516 33.727664 0.000000 0.000000 0.000000 4.990776 19.869476 47.222763 -0.391007 5.477014 7.339870 0.000000 0.000000 0.000000 -0.836616 5.447233 7.297366 -4.281626 -2.554235 -4.348469 -0.836616 5.447233 7.297366 -45.529696 -35.186113 22.724702 16.073963 -40.665741 -34.854741 0.000005 -27.149555 -0.000003 -0.836616 5.447233 7.297366 23.987251 40.369428 13.842538 8.670417 8.723299 -42.588165 0.000017 55.171010 0.000011 0.000000 0.000000 0.000000 3.213387 1.043492 -73.512678 -6.597728 1.222290 120.121190 0.000000 0.000000 0.000000 -0.032574 -4.341185 -14.884945 -3.085244 9.359459 25.747459 
0.410221 21.644223 -12.995212 -34.037193 11.869548 28.558855 0.000000 0.000000 0.000000 4.698118 23.515944 46.292524 -0.552911 6.428629 7.251252 0.000000 0.000000 0.000000 -1.091967 6.402371 7.177432 -4.096100 -2.654912 -4.637951 -1.091967 6.402371 7.177432 -44.181008 -32.941584 21.784042 17.302907 -43.482743 -34.493088 -0.000006 -25.506659 -0.000004 -1.091967 6.402371 7.177432 24.525615 41.543167 14.824194 5.389170 0.998175 -43.115211 0.000002 69.482039 0.000010 0.000000 0.000000 0.000000 -5.720487 2.558068 -82.860448 -4.682792 3.220476 114.081926 0.000000 0.000000 0.000000 3.571337 -3.151552 -10.900093 -2.731248 10.159552 25.516872 
-0.350708 22.490216 -13.043667 -35.844825 11.071518 23.802463 0.000000 0.000000 0.000000 2.275718 25.107131 46.165140 -0.966122 6.771002 7.262654 0.000000 0.000000 0.000000 -1.554509 6.778940 7.145251 -3.686746 -2.622709 -4.902848 -1.554509 6.778940 7.145251 -42.332042 -31.338220 20.668579 20.319592 -45.391539 -37.139110 -0.000001 -21.244628 0.000007 -1.554509 6.778940 7.145251 25.145631 42.131725 15.570846 0.962893 6.102690 -47.718909 0.000009 75.037797 -0.000016 0.000000 0.000000 0.000000 -11.484459 0.239460 -86.118594 -6.007207 4.970837 96.560267 0.000000 0.000000 0.000000 6.103347 -1.122789 -6.217836 -4.024506 9.794387 24.063952 
-0.953399 23.997303 -12.879072 -36.863635 11.057157 19.341857 0.000000 0.000000 0.000000 -0.891978 25.188865 46.131483 -1.383822 6.665124 7.329069 0.000000 0.000000 0.000000 -1.959144 6.687827 7.185579 -3.276309 -2.473713 -5.044524 -1.959144 6.687827 7.185579 -39.454914 -29.702976 19.429153 23.913135 -45.646825 -42.034895 -0.000032 -16.023533 0.000007 -1.959144 6.687827 7.185579 25.908466 42.450416 16.044693 -4.716002 15.515900 -59.416132 -0.000004 77.636035 -0.000014 0.000000 0.000000 0.000000 -11.972690 -2.504312 -83.040456 -5.932018 5.269766 72.739781 0.000000 0.000000 0.000000 9.145144 0.386297 -3.147865 -3.185135 11.014472 24.879265 
-1.812477 25.439309 -12.190033 -38.244312 12.045472 14.987956 0.000000 0.000000 0.000000 -3.781008 24.311442 45.727429 -1.603388 6.246547 7.366891 0.000000 0.000000 0.000000 -2.107817 6.234416 7.231678 -2.894091 -2.099042 -4.874571 -2.107817 6.234416 7.231678 -34.798492 -28.288285 18.027701 23.268298 -42.651091 -44.884890 -0.000001 -14.793672 -0.000003 -2.107817 6.234416 7.231678 26.347917 42.504172 16.065304 -10.599006 23.059074 -73.532829 0.000012 82.168644 -0.000012 0.000000 0.000000 0.000000 -9.519615 -4.041216 -75.847447 -2.727009 7.860199 49.255032 0.000000 0.000000 0.000000 11.192941 1.533018 -7.615035 1.559790 9.702235 38.767269 
-3.009029 26.080361 -11.118748 -39.566013 13.805807 10.532558 0.000000 0.000000 0.000000 -5.444410 22.717299 45.393047 -1.608250 5.656814 7.331818 0.000000 0.000000 0.000000 -2.036059 5.598653 7.219543 -2.467374 -1.601776 -4.186445 -2.036059 5.598653 7.219543 -30.575270 -28.050225 16.686477 18.115402 -36.991564 -43.312601 0.000003 -17.047350 -0.000011 -2.036059 5.598653 7.219543 26.173024 41.900140 15.381079 -15.046230 27.255277 -84.144523 179.977650 88.805834 179.977632 0.000000 0.000000 0.000000 -8.085551 -4.566445 -68.486011 -1.859888 10.798982 33.845811 0.000000 0.000000 0.000000 12.216431 -0.112231 -14.908162 4.051362 5.099118 55.468468 
-4.255275 25.432366 -10.310921 -39.921125 15.452397 5.509324 0.000000 0.000000 0.000000 -5.372843 20.741841 46.262872 -1.487782 5.121707 7.275741 0.000000 0.000000 0.000000 -1.892977 5.076704 7.171637 -2.001648 -1.366487 -3.211107 -1.892977 5.076704 7.171637 -28.030752 -29.323785 15.386299 12.337570 -31.968136 -39.779336 -0.000006 -16.700854 0.000009 -1.892977 5.076704 7.171637 22.645696 40.090577 13.337378 -18.343645 29.171948 -92.205474 -179.999996 79.169222 -179.999993 0.000000 0.000000 0.000000 -9.885856 -4.227704 -63.338081 -4.592661 7.365267 29.884706 0.000000 0.000000 0.000000 10.118546 -6.672139 -25.213392 3.095824 0.513199 74.451993 
